<svg width="8" height="14" viewBox="0 0 8 14" fill="none" xmlns="http://www.w3.org/2000/svg"><path d="M3.048 10.038a.245.245 0 01-.245-.245c.009-.852.1-1.365.272-1.87.172-.504.417-.912.735-1.224.317-.312.698-.6 1.142-.863.268-.161.508-.35.721-.57.214-.222.381-.479.504-.769.127-.29.19-.611.19-.964 0-.437-.104-.816-.313-1.137a2.09 2.09 0 00-.836-.743 2.572 2.572 0 00-1.164-.261c-.371 0-.73.076-1.074.228a2.073 2.073 0 00-1.113 1.204c-.15.428-.505.79-.96.79-.494 0-.9-.418-.775-.896a3.4 3.4 0 01.467-1.052c.367-.54.85-.952 1.449-1.238A4.631 4.631 0 014.054 0c.799 0 1.492.156 2.082.468A3.393 3.393 0 017.51 1.753c.327.545.49 1.165.49 1.86 0 .492-.077.935-.231 1.333-.15.397-.368.751-.653 1.064a4.465 4.465 0 01-1.02.83c-.4.245-.72.504-.96.776a2.44 2.44 0 00-.524.957c-.109.37-.168.644-.177 1.197 0 .148-.12.268-.268.268H3.048zM3.673 14c-.335 0-.623-.118-.863-.355a1.15 1.15 0 01-.361-.85c0-.33.12-.613.36-.85a1.19 1.19 0 01.864-.354c.336 0 .624.118.864.354.24.237.361.52.361.85 0 .219-.057.42-.17.603a1.26 1.26 0 01-.442.441 1.186 1.186 0 01-.613.161z" fill="#75797B"/></svg>