<svg width="22" height="27" viewBox="0 0 22 27" fill="none" xmlns="http://www.w3.org/2000/svg"><path fill-rule="evenodd" clip-rule="evenodd" d="M10.386 26.801c.04.024.072.042.095.054l.037.021c.297.163.666.162.963 0l.038-.02a12.337 12.337 0 00.435-.258c.29-.178.698-.441 1.185-.786a26.112 26.112 0 003.576-3.042C19.308 20.116 22 16.128 22 11c0-6.075-4.925-11-11-11S0 4.925 0 11c0 5.128 2.692 9.116 5.285 11.77a26.113 26.113 0 003.576 3.042 22.697 22.697 0 001.525.99zM11 15a4 4 0 100-8 4 4 0 000 8z" fill="#fff"/></svg>